<svg width="142" height="42" fill="none" xmlns="http://www.w3.org/2000/svg"><path d="M6.265 18.886L8.4 17.829l3.373-5.074 1.033-.423 1.101 5.145-1.445.21-1.102-2.113-.826 3.312h3.649l3.787.986 1.514-.986 2.547 2.678 1.102-4.933 1.79 1.832 1.102-1.55 1.79-.494 2.616-2.466.413-1.198 2.134.352.895 1.198-1.583 3.383 3.924-2.044v-.986l1.515-.353 1.652 1.692 1.653-2.044v-1.41l2.685-1.902 1.101-1.62h1.722l3.029-6.273L52.187 0l.964 1.55-1.515 1.973.551 1.269 1.446.282 1.17 5.215v4.369l2.066 2.889 1.033 4.017-3.58-2.326-1.584-6.694-.964.211-.138 4.51-2.616 4.299-.757 6.553 1.79.423.757-.916 1.721 1.973 1.309 5.92-.138 3.805H52.05l-.62-5.356-1.17 1.621-2.548-.564-2.065-1.761-2.341.845.138 3.806-1.86.493-2.753 2.114-3.305-.423-1.308-.775-2.066.352.689.846-1.653.987-1.308-.634L27.402 42l-3.787-1.903-1.446-3.382-1.239.14-1.446-1.197-.069-.916-4.613-.494-.757 2.537-2.892-1.339-1.445-2.466H6.609l-.344 3.946-1.79.564-.895 3.594-.688-.634L0 32.91l3.442-1.692-.55-3.312-.551-3.383 1.515-2.184L3.374 21l2.065-2.255.826.14zM52.05 27.2l3.167 4.792 1.032-.422-1.308-1.974-2.892-3.1v.704zm-32.36-9.724v-1.41l2.41-1.762 2.066-1.057h-2.41l-2.134 1.269-1.308 1.198v1.762h1.377zM72.478 33.116h3.81V28.93H78.4c3.201 0 5.346-1.893 5.346-4.928 0-3.002-2.09-4.984-5.209-4.984h-6.058v14.098zm3.81-7.16v-3.882h1.344c1.336 0 2.138.716 2.138 1.928 0 1.204-.802 1.955-2.138 1.955h-1.344zM90.044 33.309c3.427 0 5.456-2.203 5.456-5.452 0-3.25-2.029-5.452-5.456-5.452-3.427 0-5.456 2.202-5.456 5.452 0 3.249 2.03 5.452 5.456 5.452zm.028-2.81c-1.015 0-1.618-1.011-1.618-2.67s.603-2.67 1.618-2.67c.96 0 1.562 1.011 1.562 2.67s-.603 2.67-1.563 2.67zM102.107 33.309c3.118 0 5.031-1.797 5.072-4.599h-3.509c-.083 1.108-.679 1.707-1.508 1.707-.994 0-1.645-.853-1.645-2.588s.651-2.588 1.645-2.588c.836 0 1.405.599 1.508 1.707h3.509c-.021-2.754-1.974-4.543-5.072-4.543-3.427 0-5.456 2.202-5.456 5.452 0 3.249 2.029 5.452 5.456 5.452zM113.812 33.309c3.118 0 5.03-1.797 5.072-4.599h-3.51c-.082 1.108-.678 1.707-1.507 1.707-.994 0-1.645-.853-1.645-2.588s.651-2.588 1.645-2.588c.836 0 1.405.599 1.507 1.707h3.51c-.021-2.754-1.974-4.543-5.072-4.543-3.427 0-5.456 2.202-5.456 5.452 0 3.249 2.029 5.452 5.456 5.452zM124.009 28.27v-5.728h-3.564v10.574h3.564l2.933-5.755v5.755h3.564V22.542h-3.564l-2.933 5.728zM138.491 33.116H142V22.542h-4.935c-3.036 0-4.955 1.542-4.935 3.69-.013 1.205.706 2.203 1.967 2.795l-2.076 4.089h3.482l1.775-3.497h1.213v3.497zm0-5.783h-1.344c-1.007 0-1.473-.495-1.453-.963-.02-.44.419-.992 1.371-.992h1.426v1.955z" fill="#fff"/></svg>