<svg width="306" height="86" fill="none" xmlns="http://www.w3.org/2000/svg"><path fill-rule="evenodd" clip-rule="evenodd" d="M294.626 53.165c0 .105-.073.19-.163.19-2.525 0-3.871.65-6.023 1.69l-.52.25c-.3.145-.641.056-.982-.148-.345-.206-.721-.548-1.113-.976-.785-.857-1.664-2.092-2.522-3.385-.576-.867-1.145-1.766-1.673-2.599-.259-.41-.509-.803-.743-1.168a39.997 39.997 0 00-.959-1.44c-.28-.396-.503-.675-.661-.816-4.217-3.758-10.11-.698-11.119 4.595-.248 1.303-.517 2.283-.809 3.001-.291.717-.613 1.189-.975 1.457-.739.547-1.56.19-2.395-.333a24.032 24.032 0 01-.761-.505c-.639-.434-1.315-.893-2.057-1.197-1.027-.42-2.156-.524-3.416.21-.385.224-.927.759-1.534 1.456a42.833 42.833 0 00-1.858 2.328 122 122 0 00-1.557 2.128l-.001.002c-.202.28-.367.51-.482.665a5.854 5.854 0 01-.137.18.817.817 0 01-.05.055h-.001a.177.177 0 01-.054.038c-.011.004-.059.025-.117 0-.077-.034-.101-.114-.105-.156-.201-1.877-1.105-3.9-2.377-5.378-1.273-1.48-2.89-2.386-4.514-2.094-2.627.47-4.145 2.318-5.41 4.541-.404.712-.778 1.452-1.155 2.198-.216.427-.432.856-.656 1.282-.609 1.161-1.264 2.285-2.073 3.227a.62.62 0 01-.333.218.536.536 0 01-.347-.048c-.207-.097-.401-.306-.574-.518-.088-.108-.175-.224-.259-.335l-.001-.001a10.04 10.04 0 00-.244-.316 2.262 2.262 0 00-.222-.242.53.53 0 00-.171-.115c-.61-.203-1.429-.25-2.26-.197a11 11 0 00-2.27.382c-.988.288-2.242 1.046-3.643 2.01-.761.525-1.551 1.1-2.36 1.69-.686.5-1.384 1.008-2.088 1.502-1.523 1.07-3.05 2.058-4.444 2.672-1.387.612-2.677.87-3.707.429-.787-.338-1.482-.7-2.136-1.05-.115-.06-.228-.122-.341-.182a32.787 32.787 0 00-1.553-.801c-1.249-.589-2.556-1.01-4.354-1.01-.826 0-1.292.206-1.602.46a2.285 2.285 0 00-.39.428 6.857 6.857 0 00-.141.2l-.022.031a4.813 4.813 0 01-.166.23c-.116.15-.248.291-.422.393a1.209 1.209 0 01-.64.156c-.509-.005-1.231-.238-2.344-.815-1.663-.861-3.156-2.24-4.631-3.671l-.517-.503c-1.306-1.275-2.613-2.55-4.043-3.534-.468-.321-1.295-1.023-2.339-1.91-.364-.31-.755-.641-1.166-.987-1.597-1.343-3.516-2.913-5.435-4.253-1.923-1.342-3.833-2.444-5.413-2.864-.79-.21-1.483-.246-2.049-.07-.56.174-1.003.558-1.301 1.213-.896 1.974-.833 4.147-.768 6.366l.015.52c.064 2.38.04 4.79-1.359 6.887-1.948 2.92-3.321 6.531-3.321 10.33 0 .966-.241 3.828-.604 6.325-.181 1.249-.395 2.418-.627 3.22-.115.395-.24.724-.38.924-.07.1-.158.19-.268.222-.122.036-.235-.009-.327-.098-.886-.86-2.361-1.286-4.146-1.497-1.527-.18-3.251-.2-4.973-.22l-.849-.012c-1.993-.028-3.942-.092-5.509-.45-1.557-.354-2.796-1.012-3.283-2.289-.302-.793-.428-1.56-.516-2.256l-.056-.466c-.059-.513-.112-.97-.221-1.379-.138-.515-.36-.931-.79-1.24-.437-.315-1.106-.53-2.156-.594-1.488-.092-2.497-.4-3.18-.923-.693-.53-1.034-1.266-1.215-2.154-.156-.766-.195-1.662-.239-2.648l-.02-.434c-.054-1.166-.137-2.466-.424-3.884a18.186 18.186 0 01-.146-.951l-.049-.347a21.372 21.372 0 00-.285-1.651c-.12-.538-.265-1-.442-1.29-.087-.145-.174-.233-.258-.275-.079-.04-.168-.046-.28.004-2.705 1.226-5.487 2.084-8.278 2.945l-.179.055c-2.205.68-3.719 1.048-4.787 1.103-1.074.055-1.733-.206-2.186-.824-.221-.302-.385-.677-.528-1.114-.144-.437-.27-.946-.411-1.519l-.017-.071c-.28-1.136-.625-2.541-1.278-4.216-.565-1.449-1.348-2.442-2.243-3.33-.4-.399-.821-.775-1.256-1.163l-.157-.14c-.49-.438-.994-.895-1.494-1.413-.363-.377-.936-.771-1.61-1.19-.296-.183-.616-.375-.943-.57a58.41 58.41 0 01-1.205-.734c-.719-.453-1.407-.932-1.931-1.44-.519-.502-.907-1.062-.97-1.684-.126-1.25-.551-1.827-1.094-2.035-.568-.217-1.321-.058-2.14.323-1.63.758-3.383 2.326-4.104 2.999-.88.82-1.75 1.62-2.61 2.409-6.29 5.78-11.96 10.99-16.118 19.468l-.031.064c-.381.778-1.705 3.48-2.987 5.22-.33.45-.663.841-.981 1.12-.313.275-.635.462-.939.455-.326-.008-.584-.236-.762-.658-.174-.412-.281-1.03-.318-1.886-.11-2.57-.92-5.316-1.969-7.983-.818-2.083-1.776-4.105-2.65-5.949-.244-.517-.482-1.019-.708-1.505-4.266-9.152-8.994-18.581-16.411-24.616-.539-.438-1.02-.82-1.456-1.165-1.163-.922-2.007-1.592-2.767-2.404-1.053-1.125-1.945-2.52-3.32-5.226l-.307-.603c-1.403-2.768-2.903-5.727-4.752-7.767-.99-1.092-2.072-1.912-3.284-2.3-1.21-.386-2.561-.346-4.096.305-.535.227-1.107.687-1.69 1.296-.58.607-1.162 1.353-1.717 2.14-.906 1.286-1.732 2.668-2.36 3.718-.142.238-.274.46-.395.658-4.482 7.4-10.226 13.172-16.038 19.01-.936.94-1.873 1.883-2.808 2.833-.067.07-.17.061-.229-.018a.212.212 0 01.016-.267c.937-.954 1.876-1.898 2.813-2.839 5.813-5.84 11.523-11.578 15.98-18.937.12-.196.25-.415.392-.652.627-1.05 1.463-2.448 2.377-3.746.561-.795 1.155-1.558 1.752-2.182.596-.623 1.204-1.12 1.795-1.37 1.593-.675 3.013-.723 4.294-.314 1.279.41 2.406 1.27 3.421 2.39 1.884 2.079 3.407 5.082 4.803 7.838l.312.614c1.37 2.695 2.243 4.053 3.26 5.14.742.792 1.56 1.44 2.712 2.354.439.348.927.735 1.478 1.183 7.488 6.093 12.248 15.6 16.51 24.746.225.482.461.98.705 1.495.874 1.846 1.84 3.885 2.664 5.983 1.054 2.682 1.885 5.48 1.998 8.12.036.839.14 1.396.285 1.74.14.333.306.44.477.445.192.005.44-.118.736-.378.291-.256.607-.625.93-1.064 1.261-1.711 2.572-4.387 2.953-5.165l.03-.06c4.19-8.547 9.913-13.804 16.201-19.58.859-.79 1.728-1.588 2.606-2.406.72-.672 2.507-2.274 4.187-3.055.835-.389 1.68-.592 2.361-.33.705.269 1.181 1.01 1.316 2.35.048.472.352.95.855 1.437.498.483 1.162.947 1.877 1.398.397.25.797.489 1.19.724.325.194.646.386.957.579.673.418 1.277.83 1.673 1.24a27.3 27.3 0 001.476 1.396l.158.14c.433.388.861.77 1.268 1.175.917.91 1.737 1.946 2.328 3.462.664 1.7 1.014 3.128 1.293 4.265l.019.075c.141.576.264 1.07.401 1.487.137.418.285.749.472 1.004.362.493.901.744 1.925.691 1.029-.052 2.511-.41 4.717-1.09l.173-.053c2.795-.862 5.562-1.716 8.25-2.934a.588.588 0 01.527 0c.158.08.288.228.395.404.212.35.369.868.491 1.415.123.55.215 1.153.291 1.684l.05.36c.053.38.098.699.141.913.293 1.452.377 2.78.432 3.95l.02.437c.044.992.082 1.849.231 2.578.167.823.472 1.463 1.076 1.925.613.47 1.553.771 3.019.861 1.074.066 1.805.287 2.31.65.512.368.775.87.929 1.45.118.443.176.943.236 1.462.017.146.034.293.053.441.086.685.207 1.412.491 2.157.417 1.093 1.506 1.72 3.049 2.072 1.533.35 3.453.414 5.45.443l.846.01c1.721.02 3.462.041 5.005.223 1.789.211 3.354.643 4.321 1.583.031.029.04.022.04.022.012-.004.044-.022.095-.094.1-.144.211-.416.324-.807.223-.771.433-1.916.614-3.161.362-2.49.6-5.327.6-6.262 0-3.905 1.409-7.596 3.389-10.563 1.321-1.978 1.355-4.258 1.291-6.642l-.015-.536c-.066-2.2-.133-4.472.806-6.54.341-.75.86-1.2 1.504-1.401.637-.199 1.389-.151 2.205.066 1.633.434 3.579 1.563 5.508 2.909 1.932 1.349 3.86 2.926 5.459 4.271.42.353.816.69 1.183 1.002 1.037.88 1.843 1.565 2.296 1.876 1.455 1 2.784 2.297 4.087 3.57l.516.501c1.476 1.432 2.938 2.78 4.555 3.617 1.106.573 1.777.777 2.214.782a.923.923 0 00.492-.116c.124-.072.225-.176.327-.307.051-.067.101-.138.154-.215.052-.076.108-.158.169-.24.121-.165.263-.336.45-.49.377-.311.914-.53 1.789-.53 1.848 0 3.198.435 4.476 1.038.526.247 1.04.524 1.57.809l.338.181c.652.349 1.337.705 2.113 1.038.915.393 2.109.177 3.479-.427 1.365-.602 2.871-1.574 4.391-2.643.691-.484 1.388-.993 2.076-1.493.816-.594 1.617-1.177 2.374-1.7 1.4-.964 2.691-1.749 3.731-2.052a11.267 11.267 0 012.33-.392c.845-.054 1.706-.01 2.367.21a.818.818 0 01.282.181c.087.08.174.177.258.28.083.102.167.214.25.324l.003.003c.085.113.168.223.251.325.171.21.324.364.46.428.065.03.118.037.164.027.047-.01.101-.04.164-.114.781-.91 1.42-2.003 2.026-3.157.217-.414.431-.837.646-1.262.38-.753.763-1.51 1.171-2.229 1.286-2.26 2.872-4.212 5.631-4.707 1.763-.316 3.478.672 4.794 2.2 1.229 1.43 2.133 3.355 2.419 5.21l.424-.588.003-.003c.402-.56.956-1.33 1.56-2.134a43.761 43.761 0 011.875-2.348c.606-.695 1.18-1.27 1.616-1.525 1.357-.79 2.58-.674 3.67-.228.773.316 1.493.805 2.141 1.246.252.171.494.336.723.48.846.528 1.502.765 2.067.346.29-.215.578-.616.855-1.3.278-.682.54-1.63.786-2.92 1.057-5.546 7.216-8.75 11.633-4.814.191.17.435.48.715.875.283.399.61.897.968 1.455.237.37.488.764.748 1.175.526.83 1.092 1.723 1.665 2.587.856 1.291 1.722 2.506 2.487 3.34.383.419.734.733 1.039.916.309.184.541.216.71.135l.525-.253c2.152-1.04 3.551-1.716 6.142-1.716.09 0 .163.085.163.19z" fill="#fff"/><path d="M24.573 3.792h.907c.55 0 .798-.319.798-.742 0-.426-.257-.667-.491-.682v-.027c.217-.064.398-.237.398-.581 0-.408-.242-.724-.746-.724h-.866v2.756zm.357-.357v-.883h.528c.286 0 .465.216.465.478 0 .232-.135.405-.478.405h-.515zm0-1.207V1.39h.487c.283 0 .418.173.418.402a.414.414 0 01-.427.436h-.478zM27.189 3.792h1.496v-.358h-1.14V2.59h1.05v-.357h-1.05v-.84h1.127v-.357h-1.483v2.756zM29.457 3.792h.102c.538 0 .667-.466.698-1.351l.037-1.053h.807v2.404h.353V1.036h-1.496l-.04 1.294c-.026.798-.109 1.09-.392 1.099l-.07.002v.36zM32.461 1.036v2.756h.328l1.202-2.021h.022v2.02h.357V1.037h-.33L32.837 3.06h-.023V1.036h-.353zM36.78 3.792h.435l-.976-1.51.981-1.246h-.442l-.92 1.164h-.123V1.036h-.357v2.756h.357V2.556h.245l.8 1.236zM38.064 1.036v2.756h.328l1.202-2.021h.022v2.02h.357V1.037h-.33L38.439 3.06h-.022V1.036h-.353zM40.981 1.036v2.756h.328l1.202-2.021h.022v2.02h.357V1.037h-.33L41.356 3.06h-.021V1.036h-.354zm1.182-.7c0 .136-.065.256-.227.256-.164 0-.225-.121-.225-.256h-.283c0 .303.198.511.508.511.313 0 .51-.208.51-.511h-.283zM23.094 8.34h.357V7.138h1.179V8.34h.358V5.583h-.358v1.198h-1.18V5.583h-.356V8.34zM28.05 6.962c0-.882-.453-1.416-1.065-1.416-.614 0-1.066.534-1.066 1.416 0 .88.451 1.415 1.066 1.415.612 0 1.065-.534 1.065-1.415zm-.354 0c0 .671-.305 1.036-.711 1.036-.408 0-.712-.365-.712-1.036 0-.672.304-1.037.712-1.037.406 0 .711.365.711 1.037zM28.982 8.34h.907c.55 0 .798-.32.798-.742 0-.427-.257-.667-.49-.682v-.027c.216-.065.398-.237.398-.582 0-.407-.243-.724-.746-.724h-.867V8.34zm.357-.357V7.1h.528c.286 0 .465.215.465.478 0 .231-.135.405-.478.405h-.515zm0-1.207v-.839h.488c.282 0 .418.174.418.403a.414.414 0 01-.428.436h-.478zM33.073 5.583h-1.475V8.34h.357V5.94h1.118v-.358zM35.919 6.962c0-.882-.453-1.416-1.065-1.416-.614 0-1.066.534-1.066 1.416 0 .88.452 1.415 1.066 1.415.612 0 1.065-.534 1.065-1.415zm-.354 0c0 .671-.305 1.036-.711 1.036-.408 0-.712-.365-.712-1.036 0-.672.304-1.037.712-1.037.406 0 .711.365.711 1.037zM36.851 8.34h.357v-.97h.485c.549 0 .82-.386.82-.894s-.269-.893-.819-.893h-.843V8.34zm.357-1.322V5.94h.448c.354 0 .498.223.498.536 0 .312-.144.542-.493.542h-.453zM41.474 6.962c0-.882-.453-1.416-1.065-1.416-.614 0-1.066.534-1.066 1.416 0 .88.452 1.415 1.066 1.415.612 0 1.065-.534 1.065-1.415zm-.354 0c0 .671-.304 1.036-.711 1.036-.408 0-.711-.365-.711-1.036 0-.672.303-1.037.711-1.037.407 0 .711.365.711 1.037zM42.227 9.006h.342V8.34h1.588v.662h.342V7.987h-.268V5.583h-1.458l-.056 1.165c-.036.767-.175 1.083-.334 1.239h-.156v1.019zm.577-1.019c.135-.252.226-.657.255-1.24l.037-.806h.793v2.046h-1.085zM2.392 47.649H.567v2.756h.356v-2.4h1.113v2.4h.356V47.65zM5.39 48.545c-.081-.59-.477-.934-.977-.934-.612 0-1.064.535-1.064 1.416 0 .882.45 1.416 1.064 1.416.52 0 .9-.38.977-.925l-.36-.001c-.062.353-.316.546-.615.546-.405 0-.711-.362-.711-1.036 0-.669.305-1.036.712-1.036.302 0 .555.198.614.554h.36zM7.706 50.405h.435l-.976-1.51.982-1.246h-.443l-.92 1.164h-.122V47.65h-.357v2.756h.357V49.17h.244l.8 1.235zM10.927 49.027c0-.881-.453-1.416-1.065-1.416-.614 0-1.066.535-1.066 1.416 0 .88.452 1.416 1.066 1.416.612 0 1.065-.534 1.065-1.416zm-.353 0c0 .672-.305 1.036-.712 1.036s-.711-.364-.711-1.036c0-.671.304-1.036.711-1.036s.712.365.712 1.036zM11.86 50.405h.906c.55 0 .798-.319.798-.741 0-.427-.256-.668-.49-.683v-.027c.217-.064.398-.236.398-.581 0-.408-.242-.724-.746-.724h-.866v2.756zm.357-.356v-.883h.527c.287 0 .466.215.466.478 0 .23-.135.405-.478.405h-.515zm0-1.208v-.838h.487c.283 0 .418.174.418.402a.414.414 0 01-.427.436h-.478zM53.645 58.239h.736v2.398h.356v-2.398h.738v-.358h-1.83v.358zM56.367 60.637h.907c.55 0 .798-.319.798-.742 0-.426-.257-.667-.491-.682v-.027c.217-.064.398-.237.398-.581 0-.408-.242-.724-.746-.724h-.866v2.756zm.357-.357v-.882h.528c.286 0 .465.215.465.477 0 .232-.135.405-.478.405h-.515zm0-1.207v-.838h.487c.283 0 .419.173.419.402a.414.414 0 01-.428.436h-.478zM58.983 60.637h1.497v-.358h-1.14v-.844h1.048v-.356H59.34v-.84h1.126v-.358h-1.483v2.756zM61.43 60.637h.357v-.969h.485c.549 0 .82-.386.82-.895 0-.507-.27-.892-.819-.892h-.843v2.756zm.357-1.322v-1.078h.448c.353 0 .498.224.498.536 0 .312-.145.542-.493.542h-.453zM64.358 58.992v-1.111H64v2.756h.886c.527 0 .828-.342.827-.836.001-.492-.3-.809-.827-.809h-.528zm0 .35h.528c.306 0 .475.205.475.454 0 .256-.169.491-.475.491h-.528v-.945zM85.57 68.975v-2.757h-.843c-.55 0-.82.357-.82.864 0 .37.145.652.435.777l-.524 1.116h.406l.48-1.043h.509v1.043h.357zm-.357-1.401h-.453c-.348 0-.493-.18-.493-.492s.145-.507.498-.507h.448v.999zM86.576 68.975h.357v-.97h.485c.548 0 .82-.386.82-.894s-.27-.893-.82-.893h-.842v2.757zm.357-1.322v-1.078h.448c.353 0 .498.223.498.536 0 .312-.145.542-.494.542h-.452zM91.198 67.596c0-.881-.452-1.415-1.064-1.415-.615 0-1.066.534-1.066 1.415 0 .88.451 1.416 1.066 1.416.612 0 1.064-.534 1.064-1.416zm-.353 0c0 .672-.305 1.037-.712 1.037s-.71-.365-.71-1.037c0-.671.303-1.036.71-1.036s.712.365.712 1.036zM94.095 67.115c-.08-.59-.477-.934-.977-.934-.612 0-1.063.534-1.063 1.415 0 .882.449 1.416 1.063 1.416.52 0 .9-.38.977-.924l-.36-.002c-.061.353-.315.547-.614.547-.406 0-.712-.362-.712-1.037 0-.668.305-1.036.713-1.036.301 0 .554.198.613.555h.36zM94.831 68.975h.102c.538 0 .667-.466.698-1.352l.037-1.052h.808v2.404h.352v-2.757h-1.496l-.04 1.295c-.026.798-.109 1.09-.392 1.098l-.069.003v.36zM98.035 68.975l.217-.73h.924l.216.73h.379l-.851-2.757h-.413l-.85 2.757h.378zm.321-1.08l.349-1.176h.019l.348 1.176h-.716zM100.6 68.975h.907c.549 0 .798-.32.798-.742 0-.427-.257-.668-.491-.682v-.027c.217-.065.398-.237.398-.582 0-.407-.242-.724-.746-.724h-.866v2.757zm.357-.357v-.883h.528c.286 0 .465.215.465.478 0 .231-.135.405-.478.405h-.515zm0-1.207v-.839h.487c.283 0 .418.174.418.403a.414.414 0 01-.427.436h-.478zM103.037 68.975h.101c.539 0 .668-.466.699-1.352l.037-1.052h.807v2.404h.353v-2.757h-1.496l-.04 1.295c-.026.798-.109 1.09-.392 1.098l-.069.003v.36zM106.401 67.33v-1.112h-.358v2.757h.886c.527 0 .828-.342.827-.836.001-.493-.3-.809-.827-.809h-.528zm0 .35h.528c.306 0 .475.204.475.453 0 .256-.169.492-.475.492h-.528v-.945zM110.984 43.48v2.756h.34V44.24h.022l.697 1.992h.282l.698-1.99h.022v1.994h.339V43.48h-.433l-.753 2.143h-.028l-.753-2.143h-.433zM114.651 46.236l.217-.73h.924l.216.73h.379l-.852-2.756h-.412l-.851 2.756h.379zm.321-1.08l.349-1.175h.018l.349 1.176h-.716zM117.216 46.236h.357v-1.201h1.179v1.201h.358V43.48h-.358v1.198h-1.179V43.48h-.357v2.756zM120.001 43.838h.737v2.398h.355v-2.398h.738v-.358h-1.83v.358zM122.891 46.274h.162c.369 0 .492-.241.595-.516l.818-2.278h-.374l-.552 1.594-.62-1.594h-.379l.831 2.069-.033.098c-.051.144-.129.26-.306.26h-.142v.367zM125.291 46.236h.357v-.969h.485c.549 0 .82-.386.82-.895 0-.507-.269-.892-.819-.892h-.843v2.756zm.357-1.321v-1.078h.448c.354 0 .498.223.498.535 0 .313-.144.543-.493.543h-.453zM129.914 44.858c0-.881-.453-1.416-1.065-1.416-.614 0-1.066.535-1.066 1.416 0 .88.452 1.416 1.066 1.416.612 0 1.065-.534 1.065-1.416zm-.354 0c0 .672-.304 1.036-.711 1.036-.408 0-.711-.364-.711-1.036 0-.671.303-1.036.711-1.036.407 0 .711.365.711 1.036zM130.847 46.236h.906c.55 0 .798-.319.798-.741 0-.427-.256-.668-.491-.683v-.026c.217-.065.399-.237.399-.582 0-.408-.243-.724-.746-.724h-.866v2.756zm.356-.356v-.883h.528c.287 0 .466.215.466.477 0 .232-.136.406-.479.406h-.515zm0-1.208v-.838h.488c.283 0 .418.174.418.402a.414.414 0 01-.428.436h-.478zM135.517 44.858c0-.881-.453-1.416-1.065-1.416-.615 0-1.066.535-1.066 1.416 0 .88.451 1.416 1.066 1.416.612 0 1.065-.534 1.065-1.416zm-.354 0c0 .672-.305 1.036-.711 1.036-.408 0-.712-.364-.712-1.036 0-.671.304-1.036.712-1.036.406 0 .711.365.711 1.036zM129.462 56.849h.435l-.976-1.51.982-1.247h-.443l-.92 1.165h-.122v-1.165h-.357v2.757h.357v-1.236h.244l.8 1.236zM132.683 55.47c0-.881-.452-1.415-1.065-1.415-.614 0-1.065.534-1.065 1.416 0 .88.451 1.415 1.065 1.415.613 0 1.065-.534 1.065-1.416zm-.353 0c0 .672-.305 1.037-.712 1.037s-.711-.365-.711-1.036c0-.672.304-1.037.711-1.037s.712.365.712 1.037zM133.401 54.45h.737v2.399h.355V54.45h.738v-.358h-1.83v.358zM136.124 56.849h1.496v-.358h-1.14v-.844h1.049v-.357h-1.049v-.84h1.126v-.358h-1.482v2.757zM138.392 56.849h.101c.539 0 .668-.466.699-1.352l.037-1.052h.807v2.404h.353v-2.757h-1.496l-.04 1.295c-.026.798-.109 1.09-.392 1.098l-.069.003v.36zM141.756 55.204v-1.112h-.358v2.757h.886c.527 0 .828-.342.827-.836.001-.493-.3-.809-.827-.809h-.528zm0 .35h.528c.306 0 .475.204.475.453 0 .256-.169.492-.475.492h-.528v-.945zM144.034 56.849h.357v-1.202h1.179v1.202h.358v-2.757h-.358v1.198h-1.179v-1.198h-.357v2.757zM146.935 54.092v2.757h.328l1.202-2.022h.022v2.022h.357v-2.757h-.33l-1.203 2.024h-.022v-2.024h-.354zM149.9 54.092v.91c-.001.615.319.857.836.857.228 0 .424-.033.594-.09v1.08h.353v-2.757h-.353v1.322a2.094 2.094 0 01-.594.089c-.308 0-.484-.121-.484-.5v-.91h-.352zM153.736 55.297h-1.048v.348h1.048v-.348zM155.511 54.092h-.332c-.013.076-.193.424-.538.424v.342c.268 0 .453-.124.493-.204h.019v2.195h.358v-2.757zM172.296 68.872h-1.475v2.756h.357V69.23h1.118v-.358zM173.007 71.628h.102c.538 0 .667-.466.698-1.351l.037-1.053h.807v2.404h.353v-2.756h-1.496l-.04 1.294c-.026.798-.109 1.09-.392 1.099l-.069.002v.36zM176.211 71.628l.217-.73h.924l.216.73h.379l-.851-2.756h-.413l-.851 2.756h.379zm.321-1.08l.349-1.176h.018l.349 1.177h-.716zM179.567 71.665c.483 0 .837-.336.836-.794.001-.348-.18-.598-.494-.655v-.021c.247-.074.408-.3.406-.61.002-.405-.284-.751-.739-.751-.434 0-.783.305-.794.754h.345c.008-.253.213-.407.445-.407.241 0 .399.171.398.425.001.267-.182.442-.444.442h-.2v.339h.2c.328 0 .517.194.517.471 0 .268-.2.45-.478.45-.257 0-.456-.154-.47-.399h-.363c.015.45.357.756.835.756zM183.414 70.25c0-.882-.452-1.416-1.064-1.416-.615 0-1.066.534-1.066 1.416 0 .88.451 1.415 1.066 1.415.612 0 1.064-.534 1.064-1.415zm-.353 0c0 .671-.305 1.036-.711 1.036-.408 0-.712-.365-.712-1.036 0-.672.304-1.037.712-1.037.406 0 .711.365.711 1.037zM184.347 71.628h.907c.549 0 .798-.32.798-.742 0-.426-.257-.667-.491-.682v-.027c.217-.065.398-.237.398-.581 0-.408-.242-.724-.746-.724h-.866v2.756zm.357-.357v-.883h.528c.286 0 .465.216.465.478 0 .232-.135.405-.478.405h-.515zm0-1.207v-.838h.487c.283 0 .418.173.418.402a.414.414 0 01-.427.436h-.478zM173.347 44.437h-1.825v2.756h.356v-2.401h1.113v2.4h.356v-2.755zM174.38 47.193h1.497v-.358h-1.14v-.844h1.049v-.357h-1.049v-.84h1.126v-.357h-1.483v2.756zM176.828 47.193h.357v-.97h.485c.548 0 .82-.386.82-.894s-.27-.892-.819-.892h-.843v2.756zm.357-1.322v-1.078h.448c.353 0 .497.224.497.536 0 .312-.144.542-.493.542h-.452zM179.396 44.437v2.756h.339v-1.996h.022l.698 1.992h.281l.698-1.99h.022v1.994h.339v-2.756h-.433l-.753 2.142h-.027l-.753-2.142h-.433zM183.223 45.548v-1.111h-.358v2.756h.885c.527 0 .829-.342.827-.836.002-.493-.3-.809-.827-.809h-.527zm0 .35h.527c.307 0 .475.205.475.454 0 .255-.168.49-.475.49h-.527v-.944zM195.095 58.997h.737v2.398h.355v-2.398h.738v-.358h-1.83v.358zM198.174 58.64h-.357v2.755h.357v-1.17h.415c.065.756.492 1.208 1.057 1.208.612 0 1.064-.534 1.064-1.416 0-.881-.452-1.415-1.064-1.415-.581 0-1.017.477-1.063 1.274h-.409v-1.237zm2.183 1.377c0 .672-.305 1.037-.711 1.037-.408 0-.712-.365-.712-1.037 0-.671.304-1.036.712-1.036.406 0 .711.365.711 1.036zM201.583 58.64v2.755h.339V59.4h.022l.698 1.991h.281l.698-1.99h.022v1.994h.339V58.64h-.433l-.753 2.143h-.027l-.753-2.143h-.433zM205.049 61.395h1.497v-.358h-1.14v-.843h1.049v-.357h-1.049v-.84h1.126v-.358h-1.483v2.756zM207.497 61.395h.357v-1.201h1.179v1.201h.358V58.64h-.358v1.198h-1.179v-1.198h-.357v2.756zM210.758 59.75v-1.11h-.358v2.755h.886c.527 0 .828-.341.827-.835.001-.493-.3-.81-.827-.81h-.528zm0 .35h.528c.306 0 .475.205.475.454 0 .256-.169.491-.475.491h-.528v-.944zM227.295 68.354c0-.881-.453-1.415-1.065-1.415-.614 0-1.066.534-1.066 1.415 0 .88.452 1.416 1.066 1.416.612 0 1.065-.534 1.065-1.416zm-.354 0c0 .672-.305 1.037-.711 1.037-.408 0-.711-.365-.711-1.037 0-.671.303-1.036.711-1.036.406 0 .711.365.711 1.036zM228.227 66.976v2.756h.34v-1.995h.022l.697 1.991h.282l.698-1.99h.022v1.994h.339v-2.756h-.433l-.753 2.143h-.028l-.752-2.143h-.434zM233.659 67.873c-.081-.59-.477-.934-.977-.934-.613 0-1.064.534-1.064 1.415 0 .882.449 1.416 1.064 1.416.519 0 .899-.38.977-.924l-.361-.002c-.061.353-.315.547-.614.547-.405 0-.712-.363-.712-1.037 0-.669.305-1.036.713-1.036.301 0 .554.198.613.555h.361zM235.974 69.732h.436l-.976-1.51.981-1.246h-.442l-.92 1.164h-.123v-1.164h-.357v2.756h.357v-1.235h.245l.799 1.235zM262.392 39.794h.436l-.976-1.51.981-1.246h-.442l-.92 1.164h-.123v-1.164h-.357v2.756h.357v-1.236h.245l.799 1.236zM263.677 39.794h.357v-.97h.485c.548 0 .82-.385.82-.894 0-.507-.269-.892-.819-.892h-.843v2.756zm.357-1.322v-1.078h.448c.353 0 .497.224.497.536 0 .312-.144.542-.493.542h-.452zM266.194 39.794l.217-.73h.924l.216.73h.378l-.851-2.756h-.412l-.851 2.756h.379zm.321-1.08l.348-1.176h.019l.349 1.177h-.716zM270.612 37.934c-.081-.59-.477-.934-.977-.934-.612 0-1.064.534-1.064 1.416 0 .881.45 1.416 1.064 1.416.52 0 .9-.38.977-.925l-.36-.001c-.062.352-.316.546-.615.546-.405 0-.711-.362-.711-1.036 0-.67.305-1.036.712-1.036.302 0 .555.197.614.554h.36zM271.527 39.794h.357v-1.202h1.179v1.202h.358v-2.756h-.358v1.197h-1.179v-1.197h-.357v2.756zM276.483 38.416c0-.882-.453-1.416-1.065-1.416-.614 0-1.066.534-1.066 1.416 0 .88.452 1.416 1.066 1.416.612 0 1.065-.535 1.065-1.416zm-.354 0c0 .671-.305 1.036-.711 1.036-.408 0-.711-.365-.711-1.036 0-.672.303-1.036.711-1.036.406 0 .711.364.711 1.036zM278.993 39.794v-2.756h-.843c-.549 0-.819.356-.819.864 0 .37.144.651.434.776l-.524 1.116h.406l.481-1.043h.508v1.043h.357zm-.357-1.401h-.453c-.347 0-.493-.18-.493-.491 0-.313.146-.508.498-.508h.448v.999zM279.999 39.794h.357v-.97h.485c.549 0 .82-.385.82-.894 0-.507-.269-.892-.819-.892h-.843v2.756zm.357-1.322v-1.078h.448c.354 0 .498.224.498.536 0 .312-.144.542-.493.542h-.453zM284.532 37.934c-.081-.59-.477-.934-.977-.934-.613 0-1.064.534-1.064 1.416 0 .881.449 1.416 1.064 1.416.519 0 .899-.38.977-.925l-.361-.001c-.061.352-.315.546-.614.546-.405 0-.712-.362-.712-1.036 0-.67.305-1.036.713-1.036.301 0 .554.197.613.554h.361zM286.847 39.794h.436l-.976-1.51.981-1.246h-.442l-.92 1.164h-.123v-1.164h-.357v2.756h.357v-1.236h.245l.799 1.236zM285.324 61.433h.161c.37 0 .492-.24.596-.515l.818-2.279h-.374l-.552 1.594-.621-1.594h-.378l.831 2.069-.033.098c-.051.144-.13.261-.306.261h-.142v.366zM287.545 61.395h.102c.538 0 .667-.465.698-1.35l.037-1.053h.808v2.403h.352V58.64h-1.496l-.04 1.295c-.026.798-.109 1.09-.392 1.098l-.069.003v.36zM290.749 61.395l.217-.729h.924l.216.73h.379l-.851-2.757h-.413l-.851 2.756h.379zm.321-1.079l.349-1.176h.018l.349 1.176h-.716zM293.314 61.395h.357v-1.201h1.179v1.201h.358V58.64h-.358v1.198h-1.179v-1.198h-.357v2.756zM297.233 59.844h-1.049v.348h1.049v-.348zM298.17 61.433h.161c.37 0 .492-.24.596-.515l.818-2.279h-.374l-.552 1.594-.62-1.594h-.379l.831 2.069-.033.098c-.051.144-.13.261-.306.261h-.142v.366zM300.391 62.062h.342v-.667h1.588v.663h.342v-1.015h-.268v-2.404h-1.459l-.055 1.164c-.036.768-.176 1.084-.334 1.24h-.156v1.019zm.576-1.02c.136-.25.227-.656.256-1.239l.037-.806h.793v2.046h-1.086zM303.466 60.52c.045.523.339.913.909.913.571 0 .936-.496.936-1.269v-.287c0-.772-.37-1.275-.955-1.275-.557 0-.845.395-.891.928h.364c.037-.358.181-.57.527-.57.38 0 .592.358.593.915h-.872v.352h.871c-.015.486-.197.854-.573.854-.354 0-.506-.197-.546-.56h-.363z" fill="#fff"/><path d="M35.194 13.014c0 .731-.509 1.324-1.136 1.324-.628 0-1.136-.593-1.136-1.324 0-.73.508-1.324 1.136-1.324.627 0 1.136.593 1.136 1.324z" fill="#272722"/><path fill-rule="evenodd" clip-rule="evenodd" d="M34.058 13.959c.447 0 .81-.423.81-.945s-.363-.945-.81-.945c-.448 0-.81.423-.81.945s.362.945.81.945zm0 .379c.627 0 1.136-.593 1.136-1.324 0-.73-.509-1.324-1.136-1.324-.628 0-1.136.593-1.136 1.324 0 .731.508 1.324 1.136 1.324z" fill="#fff"/><path d="M7.304 43.771c0 .731-.509 1.324-1.136 1.324-.627 0-1.136-.593-1.136-1.324 0-.731.509-1.324 1.136-1.324.627 0 1.136.593 1.136 1.324z" fill="#131313"/><path fill-rule="evenodd" clip-rule="evenodd" d="M6.168 44.716c.448 0 .81-.423.81-.945s-.362-.945-.81-.945c-.448 0-.81.423-.81.945s.362.945.81.945zm0 .379c.627 0 1.136-.593 1.136-1.324 0-.731-.509-1.324-1.136-1.324-.627 0-1.136.593-1.136 1.324 0 .731.509 1.324 1.136 1.324z" fill="#fff"/><path d="M70.406 59.344c0 .731-.509 1.324-1.136 1.324-.627 0-1.136-.593-1.136-1.324 0-.73.509-1.324 1.136-1.324.627 0 1.136.593 1.136 1.324z" fill="#4D5648"/><path fill-rule="evenodd" clip-rule="evenodd" d="M69.27 60.289c.448 0 .81-.423.81-.945s-.362-.944-.81-.944c-.448 0-.81.422-.81.944s.362.945.81.945zm0 .379c.627 0 1.136-.593 1.136-1.324 0-.73-.509-1.324-1.136-1.324-.627 0-1.136.593-1.136 1.324 0 .731.509 1.324 1.136 1.324z" fill="#fff"/><path d="M80.914 67.619c0 .73-.509 1.323-1.136 1.323-.628 0-1.136-.592-1.136-1.323s.508-1.324 1.136-1.324c.627 0 1.136.593 1.136 1.324z" fill="#47443E"/><path fill-rule="evenodd" clip-rule="evenodd" d="M79.778 68.563c.447 0 .81-.423.81-.944 0-.522-.362-.945-.81-.945-.448 0-.811.423-.811.945 0 .521.363.944.81.944zm0 .38c.627 0 1.136-.593 1.136-1.324 0-.731-.509-1.324-1.136-1.324-.628 0-1.136.593-1.136 1.324 0 .73.508 1.323 1.136 1.323z" fill="#fff"/><path d="M109.595 48.424c0 .731-.508 1.324-1.136 1.324-.627 0-1.136-.593-1.136-1.324 0-.73.509-1.323 1.136-1.323.628 0 1.136.592 1.136 1.323z" fill="#93A47C"/><path fill-rule="evenodd" clip-rule="evenodd" d="M108.459 49.37c.448 0 .811-.424.811-.946 0-.521-.363-.944-.811-.944-.447 0-.81.423-.81.944 0 .522.363.945.81.945zm0 .378c.628 0 1.136-.593 1.136-1.324 0-.73-.508-1.323-1.136-1.323-.627 0-1.136.592-1.136 1.323s.509 1.324 1.136 1.324z" fill="#fff"/><path d="M134.87 61.33c0 .732-.509 1.324-1.136 1.324-.628 0-1.136-.592-1.136-1.323 0-.732.508-1.324 1.136-1.324.627 0 1.136.593 1.136 1.324z" fill="#738F8C"/><path fill-rule="evenodd" clip-rule="evenodd" d="M133.734 62.275c.447 0 .81-.423.81-.944 0-.522-.363-.945-.81-.945-.448 0-.811.423-.811.945 0 .521.363.944.811.944zm0 .38c.627 0 1.136-.593 1.136-1.324 0-.732-.509-1.324-1.136-1.324-.628 0-1.136.593-1.136 1.324 0 .73.508 1.323 1.136 1.323z" fill="#fff"/><path d="M168.094 70.266c0 .731-.508 1.324-1.136 1.324-.627 0-1.136-.593-1.136-1.324 0-.731.509-1.324 1.136-1.324.628 0 1.136.593 1.136 1.324z" fill="#789186"/><path fill-rule="evenodd" clip-rule="evenodd" d="M166.958 71.21c.448 0 .811-.422.811-.944s-.363-.945-.811-.945c-.448 0-.811.423-.811.945s.363.945.811.945zm0 .38c.628 0 1.136-.593 1.136-1.324 0-.731-.508-1.324-1.136-1.324-.627 0-1.136.593-1.136 1.324 0 .731.509 1.324 1.136 1.324z" fill="#fff"/><path d="M178.885 50.742c0 .73-.508 1.323-1.136 1.323-.627 0-1.136-.592-1.136-1.323s.509-1.324 1.136-1.324c.628 0 1.136.593 1.136 1.324z" fill="#8CBABB"/><path fill-rule="evenodd" clip-rule="evenodd" d="M177.749 51.686c.448 0 .811-.422.811-.944s-.363-.945-.811-.945c-.448 0-.811.423-.811.945s.363.944.811.944zm0 .38c.628 0 1.136-.593 1.136-1.324 0-.731-.508-1.324-1.136-1.324-.627 0-1.136.593-1.136 1.324 0 .73.509 1.323 1.136 1.323z" fill="#fff"/><path d="M197.343 65.633c0 .731-.508 1.324-1.136 1.324-.627 0-1.136-.593-1.136-1.324 0-.73.509-1.323 1.136-1.323.628 0 1.136.592 1.136 1.323z" fill="#414847"/><path fill-rule="evenodd" clip-rule="evenodd" d="M196.207 66.578c.448 0 .811-.423.811-.945 0-.521-.363-.944-.811-.944-.448 0-.811.423-.811.944 0 .522.363.945.811.945zm0 .379c.628 0 1.136-.593 1.136-1.324 0-.73-.508-1.323-1.136-1.323-.627 0-1.136.592-1.136 1.323s.509 1.324 1.136 1.324z" fill="#fff"/><path d="M231.706 60.669c0 .73-.509 1.323-1.136 1.323-.628 0-1.136-.592-1.136-1.323 0-.732.508-1.324 1.136-1.324.627 0 1.136.592 1.136 1.324z" fill="#577379"/><path fill-rule="evenodd" clip-rule="evenodd" d="M230.57 61.613c.447 0 .81-.423.81-.944 0-.522-.363-.945-.81-.945-.448 0-.811.423-.811.945 0 .521.363.944.811.944zm0 .38c.627 0 1.136-.593 1.136-1.325 0-.73-.509-1.323-1.136-1.323-.628 0-1.136.592-1.136 1.324 0 .73.508 1.323 1.136 1.323z" fill="#fff"/><path d="M275.585 42.798c0 .731-.508 1.324-1.136 1.324-.627 0-1.136-.593-1.136-1.324 0-.73.509-1.323 1.136-1.323.628 0 1.136.592 1.136 1.323z" fill="#3E403A"/><path fill-rule="evenodd" clip-rule="evenodd" d="M274.449 43.743c.448 0 .811-.423.811-.945 0-.521-.363-.944-.811-.944-.447 0-.81.423-.81.944 0 .522.363.945.81.945zm0 .38c.628 0 1.136-.594 1.136-1.325 0-.73-.508-1.323-1.136-1.323-.627 0-1.136.592-1.136 1.323s.509 1.324 1.136 1.324z" fill="#fff"/><path d="M296.085 53.245c0 .73-.508 1.323-1.135 1.323-.628 0-1.136-.592-1.136-1.323s.508-1.324 1.136-1.324c.627 0 1.135.593 1.135 1.324z" fill="#181A19"/><path fill-rule="evenodd" clip-rule="evenodd" d="M294.95 54.19c.447 0 .81-.424.81-.945 0-.522-.363-.945-.81-.945-.448 0-.811.423-.811.945 0 .521.363.944.811.944zm0 .378c.627 0 1.135-.592 1.135-1.323s-.508-1.324-1.135-1.324c-.628 0-1.136.593-1.136 1.324 0 .73.508 1.323 1.136 1.323z" fill="#fff"/></svg>